<svg width="21" height="21" viewBox="0 0 21 21" fill="none" xmlns="http://www.w3.org/2000/svg">
<path d="M0 7.97158C0 3.569 3.49945 0 7.81625 0H12.7528C17.0696 0 20.5691 3.569 20.5691 7.97158V13.0063C20.5691 17.4088 17.0696 20.9778 12.7528 20.9778H7.81625C3.49945 20.9778 0 17.4088 0 13.0063V7.97158Z" fill="#1D5DFF"/>
<path d="M2.35742 5.88465C2.35742 4.26265 3.6467 2.94775 5.2371 2.94775H7.70539C9.29579 2.94775 10.5851 4.26265 10.5851 5.88465V7.56288C10.5851 9.18488 9.29579 10.4998 7.70539 10.4998H5.2371C3.6467 10.4998 2.35742 9.18488 2.35742 7.56288V5.88465Z" fill="white"/>
<path d="M9.76318 13.4371C9.76318 11.8151 11.0525 10.5002 12.6429 10.5002H15.1112C16.7016 10.5002 17.9908 11.8151 17.9908 13.4371V15.1154C17.9908 16.7374 16.7016 18.0523 15.1112 18.0523H12.6429C11.0525 18.0523 9.76318 16.7374 9.76318 15.1154V13.4371Z" fill="white"/>
</svg>
