<svg width="512" height="512" viewBox="0 0 512 512" fill="none" xmlns="http://www.w3.org/2000/svg">
<rect width="512" height="512" rx="102" fill="#BCEBFF"/>
<path opacity="0.86" d="M489.209 121.04C492.182 120.049 503.232 113.875 491.38 108.585C484.637 99.9113 475.867 60.4818 432.648 53.9624C384.976 46.7711 304.779 132.556 276.705 172.207C226.474 239.42 103.11 324.818 15.2549 244.163C43.7365 312.576 97.5501 349.899 121.771 364.975C128.707 380.835 154.248 410.368 167.597 423.379C242.324 473.562 284.022 409.749 299.297 392.401C314.573 375.054 384.758 239.993 400.033 208.396C415.309 176.799 436.065 137.946 445.973 128.653C455.882 119.359 485.494 122.279 489.209 121.04Z" fill="url(#paint0_linear_281_210)"/>
<path d="M182.318 424.481C219.583 443.249 271.098 421.791 297.38 376.554C323.662 331.316 314.759 279.43 277.493 260.662C240.228 241.894 188.713 263.352 162.431 308.589C136.149 353.827 145.052 405.713 182.318 424.481Z" fill="url(#paint1_radial_281_210)"/>
<defs>
<linearGradient id="paint0_linear_281_210" x1="210.562" y1="190.804" x2="335.073" y2="445.942" gradientUnits="userSpaceOnUse">
<stop stop-color="#9159FF"/>
<stop offset="0.592366" stop-color="#5B46CD"/>
<stop offset="0.931956" stop-color="#9D8EF6"/>
</linearGradient>
<radialGradient id="paint1_radial_281_210" cx="0" cy="0" r="1" gradientTransform="matrix(-61.9297 106.595 -87.8101 -44.2236 244.247 317.886)" gradientUnits="userSpaceOnUse">
<stop stop-color="#D9D9D9"/>
<stop offset="1" stop-color="#4799AC"/>
</radialGradient>
</defs>
</svg>
