<svg width="108" height="108" viewBox="0 0 108 108" fill="none" xmlns="http://www.w3.org/2000/svg">
<path d="M80 0H28C12.536 0 0 12.536 0 28V80C0 95.464 12.536 108 28 108H80C95.464 108 108 95.464 108 80V28C108 12.536 95.464 0 80 0Z" fill="#0E1A1F"/>
<path opacity="0.86" d="M97.5352 29.3287C98.0844 29.132 100.126 27.9068 97.9363 26.8568C96.6903 25.1354 95.0698 17.31 87.0838 16.0162C78.2748 14.5889 63.4558 31.6143 58.2683 39.4836C48.9867 52.8231 26.1912 69.7716 9.95728 53.7643C15.2202 67.3419 25.1639 74.7493 29.6394 77.7413C30.921 80.889 35.6407 86.7503 38.1073 89.3324C51.9153 99.2921 59.6203 86.6273 62.443 83.1845C65.2656 79.7417 78.2345 52.9367 81.0571 46.6658C83.8797 40.3949 87.715 32.684 89.5459 30.8396C91.3768 28.9952 96.8486 29.5746 97.5352 29.3287Z" fill="url(#paint0_linear_162_1695)"/>
<path d="M41.532 86.3346C48.418 90.0594 57.937 85.8008 62.7935 76.8227C67.6499 67.8447 66.0046 57.547 59.1187 53.8223C52.2328 50.0975 42.7137 54.3561 37.8573 63.3342C33.0009 72.3122 34.6461 82.6098 41.532 86.3346Z" fill="url(#paint1_radial_162_1695)"/>
<defs>
<linearGradient id="paint0_linear_162_1695" x1="46.0463" y1="43.1745" x2="71.8259" y2="92.3574" gradientUnits="userSpaceOnUse">
<stop stop-color="#290DB4"/>
<stop offset="0.592366" stop-color="#5B46CD"/>
<stop offset="0.931956" stop-color="#9D8EF6"/>
</linearGradient>
<radialGradient id="paint1_radial_162_1695" cx="0" cy="0" r="1" gradientUnits="userSpaceOnUse" gradientTransform="translate(52.9755 65.1792) rotate(118.41) scale(24.0521 18.4474)">
<stop stop-color="#D9D9D9"/>
<stop offset="1" stop-color="#4799AC"/>
</radialGradient>
</defs>
</svg>
