<svg width="512" height="414" viewBox="0 0 512 414" fill="none" xmlns="http://www.w3.org/2000/svg">
<path d="M503.986 71.7803C507.147 70.7262 518.897 64.1619 506.295 58.5363C499.125 49.3131 489.799 7.38507 443.842 0.452539C393.148 -7.19439 307.869 84.0264 278.016 126.19C224.603 197.662 93.4219 288.471 0 202.705C30.2864 275.453 87.5098 315.141 113.265 331.172C120.641 348.038 147.801 379.442 161.996 393.277C241.457 446.64 285.797 378.783 302.041 360.337C318.284 341.89 392.916 198.271 409.16 164.672C425.403 131.073 447.474 89.7576 458.011 79.8756C468.547 69.9935 500.035 73.0979 503.986 71.7803Z" fill="url(#paint0_linear_342_132)"/>
<path d="M177.649 394.449C217.275 414.406 272.055 391.589 300.002 343.485C327.95 295.381 318.482 240.207 278.855 220.25C239.228 200.293 184.449 223.11 156.502 271.214C128.554 319.318 138.022 374.492 177.649 394.449Z" fill="url(#paint1_radial_342_132)"/>
<defs>
<linearGradient id="paint0_linear_342_132" x1="207.682" y1="145.965" x2="340.084" y2="417.27" gradientUnits="userSpaceOnUse">
<stop stop-color="#9159FF"/>
<stop offset="0.592366" stop-color="#5B46CD"/>
<stop offset="0.931956" stop-color="#9D8EF6"/>
</linearGradient>
<radialGradient id="paint1_radial_342_132" cx="0" cy="0" r="1" gradientTransform="matrix(-65.8539 113.349 -93.3742 -47.0258 243.503 281.1)" gradientUnits="userSpaceOnUse">
<stop stop-color="#D9D9D9"/>
<stop offset="1" stop-color="#4799AC"/>
</radialGradient>
</defs>
</svg>
