<svg width="482" height="405" viewBox="0 0 482 405" fill="none" xmlns="http://www.w3.org/2000/svg">
<path opacity="0.86" d="M473.954 67.503C476.927 66.5117 487.977 60.3386 476.125 55.0482C469.382 46.3745 460.612 6.945 417.394 0.425572C369.721 -6.76569 289.524 79.0193 261.45 118.67C211.219 185.883 87.8549 271.282 0 190.626C28.4817 259.039 82.2952 296.362 106.516 311.438C113.452 327.298 138.994 356.831 152.342 369.842C227.069 420.025 268.767 356.212 284.042 338.865C299.318 321.517 369.503 186.456 384.778 154.859C400.054 123.262 420.81 84.4091 430.718 75.1159C440.627 65.8227 470.239 68.7421 473.954 67.503Z" fill="url(#paint0_linear_649_127)"/>
<path d="M167.063 370.944C204.328 389.712 255.843 368.254 282.125 323.017C308.407 277.78 299.504 225.893 262.238 207.125C224.973 188.357 173.458 209.815 147.176 255.052C120.894 300.29 129.797 352.176 167.063 370.944Z" fill="url(#paint1_radial_649_127)"/>
<defs>
<linearGradient id="paint0_linear_649_127" x1="195.307" y1="137.267" x2="319.819" y2="392.405" gradientUnits="userSpaceOnUse">
<stop stop-color="#9159FF"/>
<stop offset="0.592366" stop-color="#5B46CD"/>
<stop offset="0.931956" stop-color="#9D8EF6"/>
</linearGradient>
<radialGradient id="paint1_radial_649_127" cx="0" cy="0" r="1" gradientTransform="matrix(-61.9297 106.595 -87.8101 -44.2236 228.992 264.349)" gradientUnits="userSpaceOnUse">
<stop stop-color="#D9D9D9"/>
<stop offset="1" stop-color="#4799AC"/>
</radialGradient>
</defs>
</svg>
